<?xml version="1.0" encoding="UTF-8" standalone="no"?>
<!-- Created with Inkscape (http://www.inkscape.org/) -->

<svg
   width="132.29167mm"
   height="132.29167mm"
   viewBox="0 0 132.29167 132.29168"
   version="1.1"
   id="svg5"
   xml:space="preserve"
   sodipodi:docname="HTTPageboy.svg"
   inkscape:version="1.2.2 (b0a8486541, 2022-12-01)"
   xmlns:inkscape="http://www.inkscape.org/namespaces/inkscape"
   xmlns:sodipodi="http://sodipodi.sourceforge.net/DTD/sodipodi-0.dtd"
   xmlns="http://www.w3.org/2000/svg"
   xmlns:svg="http://www.w3.org/2000/svg"><sodipodi:namedview
     id="namedview7"
     pagecolor="#505050"
     bordercolor="#eeeeee"
     borderopacity="1"
     inkscape:showpageshadow="0"
     inkscape:pageopacity="0"
     inkscape:pagecheckerboard="0"
     inkscape:deskcolor="#505050"
     inkscape:document-units="mm"
     showgrid="false"
     inkscape:zoom="1.0483215"
     inkscape:cx="124.00776"
     inkscape:cy="403.97912"
     inkscape:window-width="1920"
     inkscape:window-height="1050"
     inkscape:window-x="0"
     inkscape:window-y="0"
     inkscape:window-maximized="1"
     inkscape:current-layer="layer1" /><defs
     id="defs2" /><g
     inkscape:label="Layer 1"
     inkscape:groupmode="layer"
     id="layer1"
     transform="translate(-8.9295389,-39.291764)"><g
       id="g207"
       transform="matrix(0.61271936,0,0,0.61573367,3.7843838,15.435886)"><path
         id="path1741"
         style="fill:#ffffff;stroke-width:0.269287"
         d="m 111.45117,38.748047 c -10.22858,0.09322 -19.938931,6.326821 -24.840941,15.212359 -6.333136,10.944212 -5.094033,25.750242 3.058222,35.436062 0.710129,0.875864 1.474245,1.708144 2.278815,2.498063 -2.103825,1.359021 -3.743874,3.425278 -4.583985,5.785157 -8.809775,-0.575583 -17.612802,-1.403125 -26.443523,-1.513598 -5.457038,0.40485 -10.433383,4.2729 -12.290122,9.4031 -6.166869,12.0318 -14.939491,22.59186 -20.365162,35.03852 -1.86804,3.71782 -0.674933,8.40417 2.174779,11.28219 1.153218,1.24982 2.675795,2.04601 4.219791,2.70006 3.484159,1.79649 6.868159,4.26078 10.908143,4.51356 4.372869,0.009 8.317152,-3.09104 10.00848,-7.01692 5.266194,-8.62635 10.608069,-17.20629 15.711442,-25.9284 3.159323,0.17375 6.304977,0.33006 9.460938,0.55274 -3.427484,15.1756 -6.941537,30.33366 -10.201172,45.54492 -0.115812,2.11315 0.395458,4.25368 1.429687,6.09766 -3.169213,6.02265 -6.293554,12.06522 -9.425781,18.10742 -13.08982,-3.96432 -26.144899,-8.04265 -39.296875,-11.78906 -5.388904,-0.74523 -10.750404,3.63163 -11.40039,8.97265 -1.155403,4.96938 -3.0728454,9.79867 -3.4562701,14.9202 0.1642515,4.68412 4.0649091,8.69541 8.5677731,9.58673 16.421521,4.83702 32.75504,9.98736 49.210163,14.71298 1.587563,0.43705 3.169733,1.00676 4.842769,0.90905 6.252026,-0.0362 12.138948,-4.07895 14.796176,-9.67718 4.098896,-7.44975 7.848801,-15.08581 11.80456,-22.61168 1.959288,-3.80197 3.911873,-7.60332 5.807093,-11.43775 8.8799,2.30108 17.7303,4.70685 26.57813,7.11718 2.76232,16.52237 5.44558,33.06024 8.35351,49.55664 1.68114,5.17447 7.93839,8.10902 13.03923,6.37571 4.89361,-1.08795 10.0212,-1.41463 14.66261,-3.427 4.08469,-2.49021 5.78595,-7.95962 4.32551,-12.43308 -3.29885,-19.73889 -6.51512,-39.49348 -9.98047,-59.20313 -1.88582,-5.8665 -7.32166,-10.12328 -13.23828,-11.41406 -7.778,-2.12174 -15.55599,-4.24349 -23.33399,-6.36523 1.24544,-5.47071 2.49089,-10.94141 3.73633,-16.41211 4.20978,2.71149 8.30229,5.66646 12.8478,7.79804 4.94681,1.52203 10.42898,-0.0904 14.38462,-3.25507 10.79706,-7.73781 21.62492,-15.43439 32.33399,-23.29297 0.86063,-1.24073 1.44233,-2.65142 1.87304,-4.0918 2.49424,-0.0114 5.00941,0.10451 7.49027,-0.0953 1.60377,-0.48498 2.98908,-1.4758 4.51881,-2.13926 6.99557,-3.54578 14.05903,-6.96224 20.89717,-10.80452 3.51921,-2.76366 3.00675,-8.983738 -0.84474,-11.209689 -0.82345,-0.231225 0.0765,-0.487867 0.40316,-0.78495 1.48246,-0.946875 2.56097,-2.50696 2.75668,-4.272302 0.42238,-2.852821 -0.958,-6.0037 -3.56314,-7.354155 1.64823,-0.934012 3.13668,-2.398499 3.46875,-4.335938 0.76104,-3.28942 -1.06358,-7.205373 -4.41211,-8.193359 -4.40688,-0.966389 -8.93608,-0.287379 -13.39844,-0.511854 -16.78646,-0.0045 -33.57292,-0.0091 -50.35938,-0.01354 -5.45379,2.37509 -10.75116,5.22149 -16.03906,7.84961 0.89742,-2.818753 1.41091,-5.764007 1.47852,-8.722657 3.25234,-0.400239 6.71859,-1.679044 8.54551,-4.567251 1.49819,-2.431244 1.7936,-5.322239 2.67728,-7.969846 0.79357,-3.286419 -0.56732,-7.120748 -3.60497,-8.782583 -3.18722,-2.033849 -7.11286,-2.00991 -10.75879,-2.125784 -2.0863,-0.03649 -4.17305,0.0043 -6.25942,-0.02719 -5.45094,-5.237914 -12.97387,-8.325583 -20.55274,-8.191406 z m 18.0918,55.595703 c 0.55011,0.583753 1.19855,1.07439 1.91015,1.445312 -0.95056,0.573664 -1.88414,1.227172 -2.56835,2.115235 -1.04953,-0.561918 -2.22772,-0.853576 -3.37696,-1.152344 1.37291,-0.73757 2.68732,-1.585468 3.91992,-2.539062 l 0.0661,0.07505 z m 1.375,20.24609 c 0.48894,0.43847 -0.17565,0.18265 0,0 z" /><g
         id="g312"><rect
           style="fill:#e32823;fill-opacity:1;stroke-width:0.269331"
           id="rect644"
           width="34.657616"
           height="81.041977"
           x="-148.88739"
           y="70.356186"
           transform="matrix(-0.96922973,-0.24615793,-0.2213977,0.9751836,0,0)"
           ry="3.7693357" /><path
           id="path803"
           style="color:#000000;fill:#e32823;fill-opacity:1;stroke:#e32823;stroke-width:5.38576;stroke-linecap:round;stroke-linejoin:round;stroke-dasharray:none;stroke-opacity:1"
           d="m 68.892151,206.21195 c -1.026563,1.82566 -3.414924,1.95059 -5.087389,1.15303 -13.92202,-4.22366 -27.844043,-8.44733 -41.766064,-12.671 -1.199042,4.43901 -2.398083,8.87801 -3.597124,13.31702 17.29875,5.24821 34.57393,10.52388 51.900251,15.67008 2.969082,0.28344 5.557535,-2.03819 6.84109,-4.69655 2.384741,-4.44718 4.608584,-8.98836 6.97516,-13.44671 3.503736,-6.77521 7.007471,-13.55041 10.511206,-20.32562 -4.399673,-1.10426 -8.791754,-2.22158 -13.188165,-3.3405 -4.196322,8.11342 -8.392644,16.22684 -12.588965,24.34025 z" /><path
           id="path803-3"
           style="color:#000000;fill:#e32823;fill-opacity:1;stroke:#e32823;stroke-width:5.38576;stroke-linecap:round;stroke-linejoin:round;stroke-dasharray:none;stroke-opacity:1"
           d="m 101.97177,171.97082 c -0.52931,2.22168 -1.06905,4.45193 -1.60237,6.67692 12.34207,3.35966 24.70768,6.63603 37.0208,10.10531 1.7111,0.87542 2.00886,3.0588 2.24723,4.83584 2.75099,16.59338 5.52382,33.25419 8.2832,49.8735 4.29232,-0.8007 8.58464,-1.60142 12.87696,-2.40213 -3.32546,-20.0171 -6.61359,-40.04123 -10.02014,-60.0431 -0.94336,-2.72827 -3.68832,-4.04409 -6.18647,-4.66692 -13.65244,-3.73298 -27.32145,-7.41588 -40.98398,-11.12379 -0.54508,2.24813 -1.09015,4.49625 -1.63523,6.74437 z" /><path
           id="path803-3-6"
           style="color:#000000;fill:#e32823;fill-opacity:1;stroke:#e32823;stroke-width:5.38576;stroke-linecap:round;stroke-linejoin:round;stroke-dasharray:none;stroke-opacity:1"
           d="m 179.45711,118.30245 c -5.24652,0.013 -10.49308,0.013 -15.7396,0.0103 -1.57655,0.91434 -2.96843,2.14028 -4.4974,3.13934 -4.28696,3.03514 -8.50097,6.1984 -12.92376,9.00876 -2.39982,0.8887 -4.8829,-0.41957 -6.80579,-1.88309 -3.51343,-2.29309 -7.027,-4.58608 -10.54044,-6.87917 l -2.1823,9.6113 c 5.49588,3.57456 10.99436,7.14516 16.49977,10.70322 2.2405,0.67024 4.34233,-0.82148 6.07457,-2.14509 10.05741,-7.15847 20.08256,-14.3679 30.11495,-21.5656 z" /><path
           id="path803-3-6-3"
           style="color:#000000;fill:#e32823;fill-opacity:1;stroke:#e32823;stroke-width:5.38576;stroke-linecap:round;stroke-linejoin:round;stroke-dasharray:none;stroke-opacity:1"
           d="m 41.505478,146.82906 c -1.352819,-0.73205 -2.708673,-1.46071 -4.062659,-2.19145 7.396843,-15.71383 13.967896,-21.31878 21.426696,-36.9991 1.554458,-1.7472 4.1268,-1.5821 6.296078,-1.36569 12.318354,0.8085 24.635776,1.67737 36.953437,2.5324 -4.471277,2.7448 -8.935824,5.50049 -13.398854,8.25864 -1.821818,0.0501 -3.650123,-0.26164 -5.475954,-0.30864 -5.242196,-0.33089 -10.489453,-0.80905 -15.729169,-0.87731 -2.508898,0.50434 -3.934709,2.92167 -4.802214,5.17707 l -17.098048,27.97485 c -1.369818,-0.73366 -2.739628,-1.46734 -4.109455,-2.201 z"
           sodipodi:nodetypes="cccccccccccc" /></g><g
         id="g431"><ellipse
           style="fill:#e32823;fill-opacity:1;stroke-width:0.269299"
           id="path901"
           cx="119.27258"
           cy="54.493427"
           transform="matrix(0.99169667,0.12859906,-0.11514896,0.99334824,0,0)"
           rx="22.06221"
           ry="23.29574" /><rect
           style="fill:#e32823;fill-opacity:1;stroke:none;stroke-width:0;stroke-linecap:square;stroke-linejoin:round;stroke-dasharray:none;stroke-opacity:1"
           id="rect2122-5-6"
           width="31.425465"
           height="9.3317022"
           x="-161.18501"
           y="56.461529"
           ry="1.574126"
           rx="7.1499872"
           transform="matrix(-1,0,-0.27033803,0.96276547,0,0)" /></g><g
         id="g305"><rect
           style="fill:#e32823;fill-opacity:1;stroke:none;stroke-width:0;stroke-linecap:square;stroke-linejoin:round;stroke-dasharray:none;stroke-opacity:1"
           id="rect2122"
           width="58.492767"
           height="23.472565"
           x="361.74948"
           y="228.98682"
           ry="0"
           rx="0"
           transform="matrix(1,0,-0.89303603,0.44998517,0,0)" /><rect
           style="fill:#e32823;fill-opacity:1;stroke:none;stroke-width:0;stroke-linecap:square;stroke-linejoin:round;stroke-dasharray:none;stroke-opacity:1"
           id="rect2122-5"
           width="58.492767"
           height="23.472565"
           x="313.43878"
           y="174.88971"
           ry="0"
           rx="0"
           transform="matrix(1,0,-0.89303603,0.44998517,0,0)" /><rect
           style="fill:#e32823;fill-opacity:1;stroke:none;stroke-width:0;stroke-linecap:square;stroke-linejoin:round;stroke-dasharray:none;stroke-opacity:1"
           id="rect2122-3"
           width="58.492767"
           height="23.472565"
           x="337.59415"
           y="201.93826"
           ry="0"
           rx="0"
           transform="matrix(1,0,-0.89303603,0.44998517,0,0)" /></g></g></g></svg>
