<?xml version="1.0" encoding="UTF-8" standalone="no"?>
<!-- Created with Inkscape (http://www.inkscape.org/) -->

<svg
   width="214.93591mm"
   height="213.77229mm"
   viewBox="0 0 214.93591 213.77231"
   version="1.1"
   id="svg5"
   xml:space="preserve"
   sodipodi:docname="HTTPageboy.svg"
   inkscape:version="1.2.2 (b0a8486541, 2022-12-01)"
   xmlns:inkscape="http://www.inkscape.org/namespaces/inkscape"
   xmlns:sodipodi="http://sodipodi.sourceforge.net/DTD/sodipodi-0.dtd"
   xmlns="http://www.w3.org/2000/svg"
   xmlns:svg="http://www.w3.org/2000/svg"><sodipodi:namedview
     id="namedview7"
     pagecolor="#505050"
     bordercolor="#eeeeee"
     borderopacity="1"
     inkscape:showpageshadow="0"
     inkscape:pageopacity="0"
     inkscape:pagecheckerboard="0"
     inkscape:deskcolor="#505050"
     inkscape:document-units="mm"
     showgrid="false"
     inkscape:zoom="1.0483215"
     inkscape:cx="406.3639"
     inkscape:cy="403.97914"
     inkscape:window-width="1920"
     inkscape:window-height="1050"
     inkscape:window-x="0"
     inkscape:window-y="0"
     inkscape:window-maximized="1"
     inkscape:current-layer="layer1" /><defs
     id="defs2" /><g
     inkscape:label="Layer 1"
     inkscape:groupmode="layer"
     id="layer1"
     transform="translate(-8.9295389,-39.291764)"><g
       id="g4100"><path
         id="path3957"
         style="fill:#ffffff;stroke-width:0.269287"
         d="m 110.72461,39.306641 c -11.647069,0.507704 -22.395878,8.92387 -25.919049,19.998218 -3.75313,10.759318 -1.122724,23.625743 7.002211,31.717085 0.177329,0.355664 1.132231,0.79186 0.828198,1.07451 -3.129561,1.837948 -5.146345,5.26845 -5.533348,8.844766 -5.161435,23.12406 -10.51961,46.20681 -15.604668,69.34524 -0.344574,1.35978 -0.598376,2.76327 -0.330293,4.16197 0.201096,1.36875 0.68058,2.69382 1.385073,3.8836 -3.25528,6.23548 -6.479383,12.48921 -9.710937,18.73828 -13.170033,-3.97644 -26.313872,-8.03043 -39.529297,-11.85156 -5.15254,-0.79589 -10.335366,3.39957 -10.921875,8.52148 -1.205542,5.03527 -3.1551198,9.94963 -3.4610861,15.15813 0.3837462,4.50454 4.3172981,8.19499 8.6954611,8.86531 17.052105,5.14211 34.074656,10.37378 51.177734,15.3418 6.406174,0.9623 12.971266,-2.73563 16.057556,-8.31731 5.345394,-9.90347 10.415671,-19.95667 15.57483,-29.96035 0.91675,-1.7942 1.81351,-3.59743 2.69769,-5.40789 9.0729,2.33965 18.10472,4.79173 27.12305,7.32422 0.52204,0.14541 0.25626,1.09443 0.47176,1.55209 2.66151,15.98294 5.24753,31.9797 8.07316,47.93424 1.3558,5.00043 7.28862,7.99152 12.16016,6.4082 4.87377,-1.07623 10.02775,-1.45331 14.72081,-3.35759 3.9613,-2.28963 5.59528,-7.52157 4.21592,-11.78598 -3.29179,-19.72801 -6.50701,-39.47027 -9.95626,-59.17088 -1.71413,-5.62471 -6.86125,-9.73299 -12.46055,-11.07407 l -24.28359,-6.61734 c 1.33724,-5.8789 2.67447,-11.75781 4.01171,-17.63672 4.35416,2.77951 8.57882,5.81235 13.22057,8.09975 4.7933,1.53548 10.14266,-0.015 13.98451,-3.09389 10.62547,-7.62421 21.31428,-15.16967 31.82422,-22.94726 1.24277,-1.24604 2.11955,-2.85115 2.4961,-4.57031 2.56184,0 5.12369,-1e-5 7.68554,0 8.39975,-4.30477 16.93587,-8.35389 25.1875,-12.9375 3.35837,-2.55763 2.79436,-8.412475 -0.81794,-10.472303 -0.39167,-0.230457 -0.8171,-0.399898 -1.25432,-0.521843 1.63593,-0.901478 3.44345,-1.978778 4,-3.890625 1.09701,-3.20892 -0.63238,-7.269392 -3.95118,-8.3125 1.61897,-0.895957 3.40151,-1.963087 3.95118,-3.857421 1.13758,-3.305071 -0.75634,-7.529932 -4.25196,-8.400391 -4.43868,-0.420359 -8.90293,-0.160419 -13.35351,-0.24821 -16.60495,-0.0077 -33.21422,-0.07396 -49.81641,0.05094 -2.41784,0.536587 -4.42474,2.086715 -6.67722,3.038983 -3.46946,1.747107 -6.94694,3.478683 -10.4009,5.255939 3.40268,-9.289529 2.13474,-20.208024 -3.5625,-28.335937 -4.54372,-6.619052 -11.89088,-11.354027 -19.90737,-12.308948 -1.60249,-0.215622 -3.22461,-0.287193 -4.84068,-0.237927 z"
         sodipodi:nodetypes="sccccccccccccccccccccccccccccccccccccccccccccss" /><rect
         style="fill:#e32823;fill-opacity:1;stroke-width:0.269331"
         id="rect644"
         width="34.657616"
         height="81.041977"
         x="-148.88739"
         y="70.356186"
         transform="matrix(-0.96922973,-0.24615793,-0.2213977,0.9751836,0,0)"
         ry="3.7693357" /><ellipse
         style="fill:#e32823;fill-opacity:1;stroke-width:0.269299"
         id="path901"
         cx="119.27258"
         cy="54.493427"
         transform="matrix(0.99169667,0.12859906,-0.11514896,0.99334824,0,0)"
         rx="22.06221"
         ry="23.29574" /><path
         id="path803"
         style="color:#000000;fill:#e32823;fill-opacity:1;stroke:#e32823;stroke-width:5.38576;stroke-linecap:round;stroke-linejoin:round;stroke-dasharray:none;stroke-opacity:1"
         d="m 68.892151,206.21195 c -1.026563,1.82566 -3.414924,1.95059 -5.087389,1.15303 -13.92202,-4.22366 -27.844043,-8.44733 -41.766064,-12.671 -1.199042,4.43901 -2.398083,8.87801 -3.597124,13.31702 17.29875,5.24821 34.57393,10.52388 51.900251,15.67008 2.969082,0.28344 5.557535,-2.03819 6.84109,-4.69655 2.384741,-4.44718 4.608584,-8.98836 6.97516,-13.44671 3.503736,-6.77521 7.007471,-13.55041 10.511206,-20.32562 -4.399673,-1.10426 -8.791754,-2.22158 -13.188165,-3.3405 -4.196322,8.11342 -8.392644,16.22684 -12.588965,24.34025 z" /><path
         id="path803-3"
         style="color:#000000;fill:#e32823;fill-opacity:1;stroke:#e32823;stroke-width:5.38576;stroke-linecap:round;stroke-linejoin:round;stroke-dasharray:none;stroke-opacity:1"
         d="m 101.97177,171.97082 c -0.52931,2.22168 -1.06905,4.45193 -1.60237,6.67692 12.34207,3.35966 24.70768,6.63603 37.0208,10.10531 1.7111,0.87542 2.00886,3.0588 2.24723,4.83584 2.75099,16.59338 5.52382,33.25419 8.2832,49.8735 4.29232,-0.8007 8.58464,-1.60142 12.87696,-2.40213 -3.32546,-20.0171 -6.61359,-40.04123 -10.02014,-60.0431 -0.94336,-2.72827 -3.68832,-4.04409 -6.18647,-4.66692 -13.65244,-3.73298 -27.32145,-7.41588 -40.98398,-11.12379 -0.54508,2.24813 -1.09015,4.49625 -1.63523,6.74437 z" /><path
         id="path803-3-6"
         style="color:#000000;fill:#e32823;fill-opacity:1;stroke:#e32823;stroke-width:5.38576;stroke-linecap:round;stroke-linejoin:round;stroke-dasharray:none;stroke-opacity:1"
         d="m 101.90148,109.60374 c -0.76663,1.33353 -1.53763,2.66576 -2.305941,3.99879 14.548271,9.48607 29.088521,18.98557 43.671911,28.41058 2.2405,0.67024 4.34267,-0.82143 6.07491,-2.14504 10.05742,-7.15848 20.08234,-14.36784 30.11474,-21.56555 -5.24653,0.013 -10.49306,0.0132 -15.73959,0.0105 -1.57655,0.91434 -2.96858,2.13995 -4.49755,3.13901 -4.28696,3.03514 -8.50086,6.19827 -12.92366,9.00863 -2.39982,0.8887 -4.88285,-0.41935 -6.80574,-1.88287 -11.74944,-7.66842 -23.49889,-15.33685 -35.24833,-23.00527 -0.78025,1.34383 -1.56049,2.68766 -2.34075,4.03149 z" /><g
         id="g2778"
         transform="matrix(0.98964389,0,0,1.0467166,-7.0433001,-6.4622781)"><rect
           style="fill:#e32823;fill-opacity:1;stroke:none;stroke-width:0;stroke-linecap:square;stroke-linejoin:round;stroke-dasharray:none;stroke-opacity:1"
           id="rect2122"
           width="59.104862"
           height="23.462084"
           x="385.61118"
           y="243.23926"
           ry="0"
           rx="0"
           transform="matrix(1,0,-0.90278427,0.43009366,0,0)" /><rect
           style="fill:#e32823;fill-opacity:1;stroke:none;stroke-width:0;stroke-linecap:square;stroke-linejoin:round;stroke-dasharray:none;stroke-opacity:1"
           id="rect2122-5"
           width="59.104862"
           height="23.462084"
           x="336.79495"
           y="189.16631"
           ry="0"
           rx="0"
           transform="matrix(1,0,-0.90278427,0.43009366,0,0)" /><rect
           style="fill:#e32823;fill-opacity:1;stroke:none;stroke-width:0;stroke-linecap:square;stroke-linejoin:round;stroke-dasharray:none;stroke-opacity:1"
           id="rect2122-3"
           width="59.104862"
           height="23.462084"
           x="361.20306"
           y="216.20277"
           ry="0"
           rx="0"
           transform="matrix(1,0,-0.90278427,0.43009366,0,0)" /></g></g></g></svg>
