<?xml version="1.0" encoding="UTF-8" standalone="no"?>
<!-- Uploaded to: SVG Repo, www.svgrepo.com, Generator: SVG Repo Mixer Tools -->

<svg
   width="800px"
   height="800px"
   viewBox="0 0 120 120"
   fill="none"
   version="1.1"
   id="svg6"
   sodipodi:docname="landscape-placeholder-svgrepo-com.svg"
   inkscape:version="1.1.2 (0a00cf5339, 2022-02-04)"
   xmlns:inkscape="http://www.inkscape.org/namespaces/inkscape"
   xmlns:sodipodi="http://sodipodi.sourceforge.net/DTD/sodipodi-0.dtd"
   xmlns="http://www.w3.org/2000/svg"
   xmlns:svg="http://www.w3.org/2000/svg">
  <defs
     id="defs10" />
  <sodipodi:namedview
     id="namedview8"
     pagecolor="#505050"
     bordercolor="#eeeeee"
     borderopacity="1"
     inkscape:pageshadow="0"
     inkscape:pageopacity="0"
     inkscape:pagecheckerboard="0"
     showgrid="false"
     inkscape:zoom="0.69625"
     inkscape:cx="400"
     inkscape:cy="400"
     inkscape:window-width="1366"
     inkscape:window-height="740"
     inkscape:window-x="0"
     inkscape:window-y="0"
     inkscape:window-maximized="1"
     inkscape:current-layer="svg6" />
  <rect
     width="120"
     height="120"
     fill="#EFF1F3"
     id="rect2" />
  <path
     fill-rule="evenodd"
     clip-rule="evenodd"
     d="m 33.2503,38.4816 c 0.01,-1.4344 1.1696,-2.5952 2.604,-2.6066 h 47.292 c 1.4385,0 2.604,1.1681 2.604,2.6066 v 42.0368 c -0.01,1.4344 -1.1696,2.5952 -2.604,2.6066 h -47.292 c -1.4385,-0.0014 -2.604,-1.168 -2.604,-2.6066 z m 49.9503,0.2435 h -47.1 v 41.55 L 62.8921,53.4783 c 1.0251,-1.0247 2.6867,-1.0247 3.7118,0 l 16.5967,16.323 z M 43.75,51.6249 c 0,2.8995 2.3505,5.25 5.25,5.25 2.8995,0 5.25,-2.3505 5.25,-5.25 0,-2.8995 -2.3505,-5.25 -5.25,-5.25 -2.8995,0 -5.25,2.3505 -5.25,5.25 z"
     fill="#687787"
     id="path4"
     sodipodi:nodetypes="ccsscccsccccccccsssss"
     style="fill:#4d4d4d" />
</svg>
